<svg width="70" height="72" viewBox="0 0 70 72" fill="none" xmlns="http://www.w3.org/2000/svg">
<path d="M67.8659 5.43076C67.0376 5.43076 66.1343 5.50587 65.2303 5.50587H65.1552V2.26849C65.1552 1.13929 64.2519 0.235413 63.1222 0.235413C53.4095 0.235413 43.9222 2.11777 34.9622 5.80731C26.002 2.11777 16.5151 0.235413 6.80216 0.235413C5.67296 0.235413 4.76908 1.06367 4.76908 2.26849V5.58156H4.69398C3.79061 5.50593 2.88719 5.43083 1.98339 5.43083C0.854195 5.43083 0.0258789 6.3342 0.0258789 7.4639V47.5204C0.0258789 48.6496 0.854141 49.4779 1.98339 49.4779C8.38366 49.4779 14.7082 50.2311 20.8069 51.7369C20.2801 53.3178 19.9036 54.9742 19.9036 56.7059C19.9036 64.9885 26.6798 71.7647 34.9624 71.7647C43.245 71.7647 50.0212 64.9885 50.0212 56.7059C50.0212 54.9742 49.6446 53.3178 49.1178 51.7363C55.2922 50.2306 61.5411 49.4774 67.9414 49.4774C69.0706 49.4774 69.9745 48.6491 69.9745 47.5198L69.9739 7.46337C69.8988 6.33365 68.9955 5.43029 67.8657 5.43029L67.8659 5.43076ZM8.76002 4.22594C17.0426 4.45178 25.1741 6.18345 33.0047 9.34567V41.8727C30.2941 42.2493 27.885 43.3035 25.8519 44.8842C20.28 43.3785 14.5578 42.4745 8.83545 42.3244L8.83493 4.22553L8.76002 4.22594ZM34.9624 68.2259C28.6378 68.2259 23.5175 63.1062 23.5175 56.7811C23.5175 50.4565 28.6378 45.2611 34.9624 45.2611C41.287 45.2611 46.4072 50.3808 46.4072 56.7059C46.4072 63.0305 41.287 68.2259 34.9624 68.2259ZM61.1647 42.3248C55.4425 42.4755 49.7199 43.3789 44.1483 44.8846C42.1152 43.3032 39.6303 42.2491 36.9955 41.8731V9.34607C44.7508 6.18331 52.8825 4.45168 61.1649 4.2258L61.1647 42.3248Z" fill="white"/>
</svg>
