<svg width="62" height="27" viewBox="0 0 62 27" fill="none" xmlns="http://www.w3.org/2000/svg">
<path d="M61.9742 8.95209C61.9742 10.0061 61.2778 10.8628 60.252 11.0887L57.052 11.7851V22.1757C58.4828 22.7217 59.5086 24.5003 59.518 26.665L59.2921 26.4391C58.7649 25.9685 58.097 25.7052 57.4001 25.7052C57.2684 25.7052 57.1367 25.7145 57.0238 25.7333L52.713 26.298C52.8353 24.3029 53.8237 22.6837 55.1693 22.1757V12.1895L31.9875 17.2061C31.6674 17.2816 31.3286 17.3097 30.9992 17.3097C30.6603 17.3097 30.3308 17.2816 30.0201 17.2061L1.73785 11.0883C0.712396 10.8628 0.0253906 10.0061 0.0253906 8.95218C0.0253906 7.90754 0.712442 7.05081 1.7383 6.82498L30.0206 0.697776C30.6509 0.566085 31.3384 0.556702 31.9876 0.697776L60.2504 6.82498C61.2768 7.05132 61.9732 7.90757 61.9732 8.95218L61.9742 8.95209Z" fill="white"/>
</svg>
